<?xml version="1.0" ?>

<svg 
style="enable-background: new 0 0 32 32" 
version="1.1" 
viewBox="0 0 32 32" xml:space="preserve" 
xmlns="http://www.w3.org/2000/svg" xmlns:xlink="http://www.w3.org/1999/xlink">

<style type="text/css">
	.st0{fill:#fff;}<svg xmlns="http://www.w3.org/2000/svg" viewBox="0 0 50 50">
  <path d="M35,10 L15,25 L35,40" stroke="#000" stroke-width="1" fill="transparent" />
</svg>
	.st1{fill:none;stroke:#222A30;stroke-width:1.0;stroke-linejoin:round;stroke-miterlimit:10;}
	.st2{fill:#171715;}
	.st3{fill-rule:evenodd;clip-rule:evenodd;fill:#222A30;}
</style><g id="Layer_1"/><g id="icons"><path class="st0" d="M 16.4 29.8 l 1.5 -1.5 c 0.3 -0.3 0.3 -0.7 0 -1 l -9.4 -9.5 h 20.9 c 0.4 0 0.7 -0.3 0.7 -0.7 v -2.1 c 0 -0.4 -0.3 -0.7 -0.7 -0.7 H 8.4 l 9.4 -9.5 c 0.3 -0.3 0.3 -0.7 0 -1 l -1.5 -1.5 c -0.3 -0.3 -0.7 -0.3 -1 0 L 2.2 15.5 c -0.3 0.3 -0.3 0.7 0 1 l 13.1 13.3 C 15.6 30.1 16.1 30.1 16.4 29.8 z M 0,16 h 2.2" id="backward_1_"/></g></svg>